<svg width="163" height="40" viewBox="0 0 163 40" fill="none"
	 xmlns="http://www.w3.org/2000/svg">
	<path fill-rule="evenodd" clip-rule="evenodd"
		  d="M161.339 0.587311L12.2081 0.587324L12.2081 0.391602L161.339 0.391589L161.339 0.587311Z"
		  fill="black" />
	<path fill-rule="evenodd" clip-rule="evenodd"
		  d="M23.8365 0.978611H12.2222V0H23.8365V0.978611Z" fill="black" />
	<path fill-rule="evenodd" clip-rule="evenodd"
		  d="M31.6934 4.96885H4.36536V3.99023H31.6934V4.96885Z" fill="black" />
	<path fill-rule="evenodd" clip-rule="evenodd"
		  d="M12.2222 8.86435H2.02112V7.88574H12.2222V8.86435Z" fill="black" />
	<path fill-rule="evenodd" clip-rule="evenodd"
		  d="M33.8843 8.86435H22.7885V7.88574H33.8843V8.86435Z" fill="black" />
	<path fill-rule="evenodd" clip-rule="evenodd"
		  d="M34.3864 12.7481L25.3491 12.7481L25.3491 11.7695L34.3864 11.7695L34.3864 12.7481Z"
		  fill="black" />
	<path fill-rule="evenodd" clip-rule="evenodd"
		  d="M11.1086 12.7481L1.55945 12.7481L1.55945 11.7695L11.1086 11.7695L11.1086 12.7481Z"
		  fill="black" />
	<path fill-rule="evenodd" clip-rule="evenodd"
		  d="M22.7885 16.6388L2.39685 16.6388L2.39685 15.6602L22.7885 15.6602L22.7885 16.6388Z"
		  fill="black" />
	<path fill-rule="evenodd" clip-rule="evenodd"
		  d="M57.4807 16.6388L37.5909 16.6388L37.5909 15.6602L57.4807 15.6602L57.4807 16.6388Z"
		  fill="black" />
	<path fill-rule="evenodd" clip-rule="evenodd"
		  d="M57.4807 12.7481L37.5909 12.7481L37.5909 11.7695L57.4807 11.7695L57.4807 12.7481Z"
		  fill="black" />
	<path fill-rule="evenodd" clip-rule="evenodd"
		  d="M51.259 8.86435L42.6605 8.86435L42.6605 7.88574L51.259 7.88574L51.259 8.86435Z"
		  fill="black" />
	<path fill-rule="evenodd" clip-rule="evenodd"
		  d="M51.259 4.96885L42.6605 4.96885L42.6605 3.99023L51.259 3.99024L51.259 4.96885Z"
		  fill="black" />
	<path fill-rule="evenodd" clip-rule="evenodd"
		  d="M51.259 20.5284L42.6605 20.5284L42.6605 19.5498L51.259 19.5498L51.259 20.5284Z"
		  fill="black" />
	<path fill-rule="evenodd" clip-rule="evenodd"
		  d="M51.259 24.4181L42.6605 24.4181L42.6605 23.4395L51.259 23.4395L51.259 24.4181Z"
		  fill="black" />
	<path fill-rule="evenodd" clip-rule="evenodd"
		  d="M51.259 28.3077L42.6605 28.3077L42.6605 27.3291L51.259 27.3291L51.259 28.3077Z"
		  fill="black" />
	<path fill-rule="evenodd" clip-rule="evenodd"
		  d="M51.259 32.1974L42.6605 32.1974L42.6605 31.2188L51.259 31.2188L51.259 32.1974Z"
		  fill="black" />
	<path fill-rule="evenodd" clip-rule="evenodd"
		  d="M32.6519 20.5284L6.37585 20.5284L6.37585 19.5498L32.6519 19.5498L32.6519 20.5284Z"
		  fill="black" />
	<path fill-rule="evenodd" clip-rule="evenodd"
		  d="M35.6187 24.4181L19.1548 24.4181L19.1548 23.4395L35.6187 23.4395L35.6187 24.4181Z"
		  fill="black" />
	<path fill-rule="evenodd" clip-rule="evenodd"
		  d="M36.212 28.3077L26.5814 28.3077L26.5814 27.3291L36.212 27.3291L36.212 28.3077Z"
		  fill="black" />
	<path fill-rule="evenodd" clip-rule="evenodd"
		  d="M9.64807 28.3077L0.0294189 28.3077L0.0294189 27.3291L9.64807 27.3291L9.64807 28.3077Z"
		  fill="black" />
	<path fill-rule="evenodd" clip-rule="evenodd"
		  d="M12.5927 32.1974L0.0294189 32.1974L0.0294189 31.2188L12.5927 31.2188L12.5927 32.1974Z"
		  fill="black" />
	<path fill-rule="evenodd" clip-rule="evenodd"
		  d="M32.9258 36.087L3.91113 36.087L3.91113 35.1084L32.9258 35.1084L32.9258 36.087Z"
		  fill="black" />
	<path fill-rule="evenodd" clip-rule="evenodd"
		  d="M57.4807 36.087L44.3505 36.087L44.3505 35.1084L57.4807 35.1084L57.4807 36.087Z"
		  fill="black" />
	<path fill-rule="evenodd" clip-rule="evenodd"
		  d="M57.4807 40.0001L46.9598 40.0001L46.9598 39.0215L57.4807 39.0215L57.4807 40.0001Z"
		  fill="black" />
	<path fill-rule="evenodd" clip-rule="evenodd"
		  d="M70.0057 40.0001L61.3486 40.0001L61.3486 39.0215L70.0057 39.0215L70.0057 40.0001Z"
		  fill="black" />
	<path fill-rule="evenodd" clip-rule="evenodd"
		  d="M70.0057 36.087L61.3486 36.087L61.3486 35.1084L70.0057 35.1084L70.0057 36.087Z"
		  fill="black" />
	<path fill-rule="evenodd" clip-rule="evenodd"
		  d="M70.0057 32.1974L61.3486 32.1974L61.3486 31.2188L70.0057 31.2188L70.0057 32.1974Z"
		  fill="black" />
	<path fill-rule="evenodd" clip-rule="evenodd"
		  d="M70.0057 28.3077L61.3486 28.3077L61.3486 27.3291L70.0057 27.3291L70.0057 28.3077Z"
		  fill="black" />
	<path fill-rule="evenodd" clip-rule="evenodd"
		  d="M70.4939 24.4181L61.3486 24.4181L61.3486 23.4395L70.4939 23.4395L70.4939 24.4181Z"
		  fill="black" />
	<path fill-rule="evenodd" clip-rule="evenodd"
		  d="M73.2772 20.5284L61.3486 20.5284L61.3486 19.5498L73.2772 19.5498L73.2772 20.5284Z"
		  fill="black" />
	<path fill-rule="evenodd" clip-rule="evenodd"
		  d="M69.5992 16.6388L61.3486 16.6388L61.3486 15.6602L69.5992 15.6602L69.5992 16.6388Z"
		  fill="black" />
	<path fill-rule="evenodd" clip-rule="evenodd"
		  d="M69.5992 12.7481L61.3486 12.7481L61.3486 11.7695L69.5992 11.7695L69.5992 12.7481Z"
		  fill="black" />
	<path fill-rule="evenodd" clip-rule="evenodd"
		  d="M81.3455 12.7481L74.6689 12.7481L74.6689 11.7695L81.3455 11.7695L81.3455 12.7481Z"
		  fill="black" />
	<path fill-rule="evenodd" clip-rule="evenodd"
		  d="M106.632 12.7481L92.1082 12.7481L92.1082 11.7695L106.632 11.7695L106.632 12.7481Z"
		  fill="black" />
	<path fill-rule="evenodd" clip-rule="evenodd"
		  d="M127.638 12.7481L119.286 12.7481L119.286 11.7695L127.638 11.7695L127.638 12.7481Z"
		  fill="black" />
	<path fill-rule="evenodd" clip-rule="evenodd"
		  d="M127.638 8.86435L119.286 8.86435L119.286 7.88574L127.638 7.88574L127.638 8.86435Z"
		  fill="black" />
	<path fill-rule="evenodd" clip-rule="evenodd"
		  d="M127.638 16.6388L119.286 16.6388L119.286 15.6602L127.638 15.6602L127.638 16.6388Z"
		  fill="black" />
	<path fill-rule="evenodd" clip-rule="evenodd"
		  d="M127.638 20.5284L119.286 20.5284L119.286 19.5498L127.638 19.5498L127.638 20.5284Z"
		  fill="black" />
	<path fill-rule="evenodd" clip-rule="evenodd"
		  d="M140.038 20.5284L129.589 20.5284L129.589 19.5498L140.038 19.5498L140.038 20.5284Z"
		  fill="black" />
	<path fill-rule="evenodd" clip-rule="evenodd"
		  d="M144.795 16.6388L133.766 16.6388L133.766 15.6602L144.795 15.6602L144.795 16.6388Z"
		  fill="black" />
	<path fill-rule="evenodd" clip-rule="evenodd"
		  d="M148.815 12.7481L137.786 12.7481L137.786 11.7695L148.815 11.7695L148.815 12.7481Z"
		  fill="black" />
	<path fill-rule="evenodd" clip-rule="evenodd"
		  d="M152.744 8.86435L141.715 8.86435L141.715 7.88574L152.744 7.88574L152.744 8.86435Z"
		  fill="black" />
	<path fill-rule="evenodd" clip-rule="evenodd"
		  d="M127.638 36.087L119.286 36.087L119.286 35.1084L127.638 35.1084L127.638 36.087Z"
		  fill="black" />
	<path fill-rule="evenodd" clip-rule="evenodd"
		  d="M127.638 40.0001L119.286 40.0001L119.286 39.0215L127.638 39.0215L127.638 40.0001Z"
		  fill="black" />
	<path fill-rule="evenodd" clip-rule="evenodd"
		  d="M127.638 16.6388L119.286 16.6388L119.286 15.6602L127.638 15.6602L127.638 16.6388Z"
		  fill="black" />
	<path fill-rule="evenodd" clip-rule="evenodd"
		  d="M127.638 16.6388L119.286 16.6388L119.286 15.6602L127.638 15.6602L127.638 16.6388Z"
		  fill="black" />
	<path fill-rule="evenodd" clip-rule="evenodd"
		  d="M127.638 32.1974L119.286 32.1974L119.286 31.2188L127.638 31.2187L127.638 32.1974Z"
		  fill="black" />
	<path fill-rule="evenodd" clip-rule="evenodd"
		  d="M144.285 32.1974L133.766 32.1974L133.766 31.2188L144.285 31.2187L144.285 32.1974Z"
		  fill="black" />
	<path fill-rule="evenodd" clip-rule="evenodd"
		  d="M146.946 36.087L136.483 36.087L136.483 35.1084L146.946 35.1084L146.946 36.087Z"
		  fill="black" />
	<path fill-rule="evenodd" clip-rule="evenodd"
		  d="M149.834 40.0001L139.054 40.0001L139.054 39.0215L149.834 39.0215L149.834 40.0001Z"
		  fill="black" />
	<path fill-rule="evenodd" clip-rule="evenodd"
		  d="M127.638 4.96884L119.286 4.96885L119.286 3.99023L127.638 3.99023L127.638 4.96884Z"
		  fill="black" />
	<path fill-rule="evenodd" clip-rule="evenodd"
		  d="M162.029 4.96884L153.536 4.96885L153.536 3.99023L162.029 3.99023L162.029 4.96884Z"
		  fill="black" />
	<path fill-rule="evenodd" clip-rule="evenodd"
		  d="M162.029 1.0792L153.536 1.0792L153.536 0.100586L162.029 0.100585L162.029 1.0792Z"
		  fill="black" />
	<path fill-rule="evenodd" clip-rule="evenodd"
		  d="M162.029 12.7481L153.536 12.7481L153.536 11.7695L162.029 11.7695L162.029 12.7481Z"
		  fill="black" />
	<path fill-rule="evenodd" clip-rule="evenodd"
		  d="M162.029 16.6388L153.536 16.6388L153.536 15.6602L162.029 15.6602L162.029 16.6388Z"
		  fill="black" />
	<path fill-rule="evenodd" clip-rule="evenodd"
		  d="M162.029 20.5284L153.536 20.5284L153.536 19.5498L162.029 19.5498L162.029 20.5284Z"
		  fill="black" />
	<path fill-rule="evenodd" clip-rule="evenodd"
		  d="M162.029 28.3077L153.536 28.3077L153.536 27.3291L162.029 27.3291L162.029 28.3077Z"
		  fill="black" />
	<path fill-rule="evenodd" clip-rule="evenodd"
		  d="M162.029 32.1974L153.536 32.1974L153.536 31.2188L162.029 31.2187L162.029 32.1974Z"
		  fill="black" />
	<path fill-rule="evenodd" clip-rule="evenodd"
		  d="M162.029 36.087L153.536 36.087L153.536 35.1084L162.029 35.1084L162.029 36.087Z"
		  fill="black" />
	<path fill-rule="evenodd" clip-rule="evenodd"
		  d="M162.029 39.7325L153.536 39.7325L153.536 38.7539L162.029 38.7539L162.029 39.7325Z"
		  fill="black" />
	<path fill-rule="evenodd" clip-rule="evenodd"
		  d="M162.029 24.4181L153.536 24.4181L153.536 23.4395L162.029 23.4395L162.029 24.4181Z"
		  fill="black" />
	<path fill-rule="evenodd" clip-rule="evenodd"
		  d="M112.181 16.6388H86.5593V15.6602H112.181V16.6388Z" fill="black" />
	<path fill-rule="evenodd" clip-rule="evenodd"
		  d="M112.181 16.6388H86.5593V15.6602H112.181V16.6388Z" fill="black" />
	<path fill-rule="evenodd" clip-rule="evenodd"
		  d="M114.502 20.5284H84.2378V19.5498H114.502V20.5284Z" fill="black" />
	<path fill-rule="evenodd" clip-rule="evenodd"
		  d="M114.502 20.5284H84.2378V19.5498H114.502V20.5284Z" fill="black" />
	<path fill-rule="evenodd" clip-rule="evenodd"
		  d="M115.52 24.4181L83.2203 24.4181L83.2203 23.4395L115.52 23.4395L115.52 24.4181Z"
		  fill="black" />
	<path fill-rule="evenodd" clip-rule="evenodd"
		  d="M138.281 24.4181L119.286 24.4181L119.286 23.4395L138.281 23.4395L138.281 24.4181Z"
		  fill="black" />
	<path fill-rule="evenodd" clip-rule="evenodd"
		  d="M141.341 28.3077L119.286 28.3077L119.286 27.3291L141.341 27.3291L141.341 28.3077Z"
		  fill="black" />
	<path fill-rule="evenodd" clip-rule="evenodd"
		  d="M115.52 28.3077L83.2203 28.3077L83.2203 27.3291L115.52 27.3291L115.52 28.3077Z"
		  fill="black" />
	<path fill-rule="evenodd" clip-rule="evenodd"
		  d="M115.52 32.1974L83.2203 32.1974L83.2203 31.2188L115.52 31.2188L115.52 32.1974Z"
		  fill="black" />
	<path fill-rule="evenodd" clip-rule="evenodd"
		  d="M111.671 36.087H87.0688V35.1084H111.671V36.087Z" fill="black" />
	<path fill-rule="evenodd" clip-rule="evenodd"
		  d="M105.273 40.0001H93.467V39.0215H105.273V40.0001Z" fill="black" />
	<path fill-rule="evenodd" clip-rule="evenodd"
		  d="M81.3455 16.6388L70.4939 16.6388L70.4939 15.6602L81.3455 15.6602L81.3455 16.6388Z"
		  fill="black" />
	<path fill-rule="evenodd" clip-rule="evenodd"
		  d="M24.3906 40.0001H12.4463V39.0215H24.3906V40.0001Z" fill="black" />
	<path fill-rule="evenodd" clip-rule="evenodd"
		  d="M35.6187 32.1974L24.3906 32.1974L24.3906 31.2188L35.6187 31.2188L35.6187 32.1974Z"
		  fill="black" />
	<path fill-rule="evenodd" clip-rule="evenodd"
		  d="M161.339 4.50238L4.91675 4.50236L4.91675 4.30664L161.339 4.30665L161.339 4.50238Z"
		  fill="black" />
	<path fill-rule="evenodd" clip-rule="evenodd"
		  d="M151.95 8.41641L2.02112 8.41643L2.02112 8.2207L151.95 8.22069L151.95 8.41641Z"
		  fill="black" />
	<path fill-rule="evenodd" clip-rule="evenodd"
		  d="M161.339 12.3305L2.02112 12.3305L2.02112 12.1348L161.339 12.1348L161.339 12.3305Z"
		  fill="black" />
	<path fill-rule="evenodd" clip-rule="evenodd"
		  d="M161.339 16.2455L3.77539 16.2455L3.77539 16.0498L161.339 16.0498L161.339 16.2455Z"
		  fill="black" />
	<path fill-rule="evenodd" clip-rule="evenodd"
		  d="M161.339 20.1596L10.2426 20.1596L10.2426 19.9639L161.339 19.9639L161.339 20.1596Z"
		  fill="black" />
	<path fill-rule="evenodd" clip-rule="evenodd"
		  d="M161.339 24.0746L19.1826 24.0746L19.1826 23.8789L161.339 23.8789L161.339 24.0746Z"
		  fill="black" />
	<path fill-rule="evenodd" clip-rule="evenodd"
		  d="M161.339 27.9887L2.02112 27.9887L2.02112 27.793L161.339 27.793L161.339 27.9887Z"
		  fill="black" />
	<path fill-rule="evenodd" clip-rule="evenodd"
		  d="M161.339 31.9027L2.02112 31.9028L2.02112 31.707L161.339 31.707L161.339 31.9027Z"
		  fill="black" />
	<path fill-rule="evenodd" clip-rule="evenodd"
		  d="M161.339 35.8178L5.4873 35.8178L5.4873 35.6221L161.339 35.6221L161.339 35.8178Z"
		  fill="black" />
	<path fill-rule="evenodd" clip-rule="evenodd"
		  d="M161.339 39.7319L13.7299 39.7319L13.7299 39.5361L161.339 39.5361L161.339 39.7319Z"
		  fill="black" />
</svg>
